<svg xmlns="http://www.w3.org/2000/svg" fill="none" viewBox="0 0 1495 934"><path stroke="#000" stroke-width="3" d="M1.5 1.5h1492v931H1.5z"/><path fill="#000" d="M875 41h612v4H875zM875 11h612v4H875zM875 35h612v4H875zM875 29h612v4H875zM875 23h612v4H875zM875 17h612v4H875zM5 41h19v4H5zM5 11h19v4H5zM5 35h19v4H5zM5 29h19v4H5zM5 23h19v4H5zM5 17h19v4H5zM61 41h553v4H61zM61 11h553v4H61zM61 35h553v4H61zM61 29h553v4H61zM61 23h553v4H61zM61 17h553v4H61z"/><path stroke="#000" stroke-width="3" d="M27.5 12.5h30v30h-30z"/></svg>